<svg height="512" viewBox="0 0 56 60" width="512" xmlns="http://www.w3.org/2000/svg"><g id="Page-1" fill="none" fill-rule="evenodd"><g id="034---Inductor" fill-rule="nonzero"><g id="Icons" transform="translate(3 3)"><path id="Shape" d="m25 0c-13.8071187 0-25 11.1928813-25 25s11.1928813 25 25 25 25-11.1928813 25-25c0-6.6304122-2.633921-12.9892601-7.3223305-17.67766953-4.6884094-4.68840946-11.0472573-7.32233047-17.6776695-7.32233047zm0 39c-7.7319865 0-14-6.2680135-14-14s6.2680135-14 14-14 14 6.2680135 14 14c0 3.7130309-1.4749958 7.2739856-4.1005051 9.8994949s-6.186464 4.1005051-9.8994949 4.1005051z" fill="#ff9801"/><path id="Shape" d="m25 0c-.5 0-1 0-1.5 0 13.1671239.83401358 23.4196519 11.7564891 23.4196519 24.95s-10.252528 24.1159864-23.4196519 24.95h1.5c13.1671239-.8340136 23.4196519-11.7564891 23.4196519-24.95s-10.252528-24.11598642-23.4196519-24.95z" fill="#f57c00"/></g><g id="Layer_2" fill="#000"><path id="Shape" d="m55 27h-1c-.0578869-1.6025201-.2654566-3.19612-.62-4.76l1-.26c.3559124-.08292.6382491-.3533831.7363747-.7054069s-.0035886-.7295401-.2652854-.9846169c-.2616967-.2550768-.6416946-.3470871-.9910893-.2399762l-1 .26c-.4804701-1.5314483-1.1031843-3.0145794-1.86-4.43l.89-.51c.4804877-.2761424.6461424-.8895123.37-1.37s-.8895123-.6461424-1.37-.37l-.89.52c-.8562511-1.3524783-1.8336011-2.6243721-2.92-3.8l.73-.73c.2536586-.25544489.3517706-.62681096.2573781-.97420819-.0943925-.34739722-.366949-.61804771-.715-.71000002-.3480511-.09195231-.7187195.00876329-.9723781.26420821l-.73.73c-1.175205-1.08986729-2.4471121-2.07057464-3.8-2.93l.52-.89c.2761424-.48048773.1104877-1.09385763-.37-1.37s-1.0938576-.11048773-1.37.37l-.51.89c-1.4157843-.75338026-2.898905-1.37274218-4.43-1.85l.26-1c.0875301-.34833395-.0174227-.71690454-.2753238-.96687479-.257901-.24997025-.6295689-.34336372-.975-.245-.3454311.09836371-.6121461.37354083-.6996762.72187479l-.26 1c-1.5560647-.36677977-3.1429269-.58773527-4.74-.66v-1c0-.55228475-.4477153-1-1-1s-1 .44771525-1 1v1c-1.6025201.0578869-3.19612.26545663-4.76.62l-.26-1c-.1796256-.50110606-.7203313-.77365686-1.23-.62-.2560417.07011239-.4736979.23915554-.6050026.46987659-.1313046.23072104-.165481.50418361-.0949974.76012341l.26 1c-1.5282934.45153962-3.0113326 1.04408577-4.43 1.77l-.51-.89c-.2761424-.48048771-.8895123-.64614234-1.37-.36999997s-.6461424.88951224-.37 1.36999997l.52.89c-1.3524783.85625113-2.6243721 1.83360108-3.8 2.92l-.73-.73c-.3948836-.39212217-1.03287783-.3898836-1.425.005s-.3898836 1.03287783.005 1.425l.73.73c-1.08986729 1.175205-2.07057464 2.4471121-2.93 3.8l-.89-.52c-.31082106-.1786328-.69333103-.1778752-1.0034421.0019873s-.50070999.5115047-.5.87.19262104.6893799.5034421.8680127l.89.51c-.75338026 1.4157843-1.37274218 2.898905-1.85 4.43l-1-.26c-.53847763-.1353098-1.08469024.1915224-1.22.73s.19152237 1.0846902.73 1.22l1 .26c-.36677977 1.5560647-.58773527 3.1429269-.66 4.74h-1c-.55228475 0-1 .4477153-1 1s.44771525 1 1 1h1c.0578869 1.6025201.26545663 3.19612.62 4.76l-1 .26c-.55228474.071797-.94179699.5777153-.86999998 1.13.07179702.5522847.57771524.941797 1.12999998.87.08611515.0138273.17388485.0138273.26 0l1-.26c.4845222 1.5074695 1.10716374 2.9669948 1.86 4.36l-.89.51c-.48048773.2761424-.64614237.8895123-.37 1.37s.88951227.6461424 1.37.37l.89-.52c.85625113 1.3524783 1.83360108 2.6243721 2.92 3.8l-.73.73c-.18931265.1877666-.29579832.4433625-.29579832.71s.10648567.5222334.29579832.71c.18871883.1871865.44419702.2915368.71.29.26580298.0015368.52128117-.1028135.71-.29l.73-.73c1.1783754 1.0903553 2.4536471 2.0710761 3.81 2.93l-.52.89c-.2761423.4804877-.1104877 1.0938576.37 1.3699999.4804877.2761424 1.0938576.1104878 1.37-.3699999l.51-.89c2.0178982 1.0723172 4.1703842 1.8694097 6.4 2.37l.72 5.76c.0656679.500992.4947407.8742854 1 .87h.13c.2661911-.0323199.5082501-.170191.6718324-.38266s.2349815-.4817331.1981676-.74734l-.65-5.13c2.427686.3466771 4.892314.3466771 7.32 0l-.67 5.13c-.0368139.2656069.0345853.534871.1981676.74734s.4056413.3503401.6718324.38266h.13c.5052593.0042854.9343321-.369008 1-.87l.73-5.77c2.2256869-.4982742 4.374737-1.2919766 6.39-2.36l.51.89c.1786328.3108211.5095174.5027321.8680127.5034421.3584954.00071.6901375-.1898889.87-.5.1798626-.3101111.1806201-.692621.0019873-1.0034421l-.52-.89c1.3524783-.8562511 2.6243721-1.8336011 3.8-2.92l.73.73c.1887188.1871865.444197.2915368.71.29.265803.0015368.5212812-.1028135.71-.29.1893127-.1877666.2957983-.4433625.2957983-.71s-.1064856-.5222334-.2957983-.71l-.73-.73c1.0903553-1.1783754 2.0710761-2.4536471 2.93-3.81l.89.52c.3108211.1786328.693331.1778753 1.0034421-.0019873.3101111-.1798625.50071-.5115046.5-.87-.00071-.3584953-.192621-.6893799-.5034421-.8680127l-.89-.51c.7533803-1.4157843 1.3727422-2.898905 1.85-4.43l1 .26c.0861151.0138273.1738849.0138273.26 0 .5522847.071797 1.058203-.3177153 1.13-.87s-.3177153-1.058203-.87-1.13l-1-.26c.3536193-1.5406623.564511-3.1106336.63-4.69h1c.5522847 0 1-.4477153 1-1s-.4477153-1-1-1zm-3 0h-9c-.0386903-.6411795-.118858-1.2791809-.24-1.91l8.71-2.33c.2993619 1.3952772.4766979 2.8139654.53 4.24zm-15.51 9.49c-.3557172.3835532-.3557172.9764468 0 1.36-.3552238.3125909-.7292572.6031347-1.12.87-.3016091-.4147221-.8680449-.5340875-1.311363-.2763444-.4433182.2577431-.6198266.8090528-.408637 1.2763444-3.4681568 1.675846-7.5048864 1.7088738-11 .09l-.09-.67c-.0552019-.4227748-.3723892-.7640523-.79-.85-.3910756-.0644709-.7833202.1081167-1 .44-.3884065-.2700569-.7622617-.5604623-1.12-.87.2717551-.3971516.2220981-.9315392-.1181814-1.2718186-.3402794-.3402795-.874667-.3899365-1.2718186-.1181814-.3125909-.3552238-.6031347-.7292572-.87-1.12.4147221-.3016091.5340875-.8680449.2763444-1.311363-.2577431-.4433182-.8090528-.6198266-1.2763444-.408637-.2-.43-.38-.86-.54-1.31.4561314-.1977281.6977471-.7005087.5671523-1.1801933s-.5937384-.7905935-1.0871523-.7298067c-.1194082-.464444-.2128859-.9351713-.28-1.41.5522847 0 1-.4477153 1-1s-.4477153-1-1-1c.0347384-.4695683.094826-.9369163.18-1.4.0699163.0048413.1400837.0048413.21 0 .4677664.0148006.883234-.2968001 1-.75.1313961-.5115258-.1576375-1.0370414-.66-1.2.16-.44.34-.88.54-1.3.1400552.0693962.2937245.1069598.45.11.4428695-.0011432.832237-.2934465.9569502-.7183951.1247131-.4249485-.0449371-.8813114-.4169502-1.1216049.2668653-.3907428.5574091-.7647762.87-1.12.1793455.1680473.4142956.2641633.66.27.3888904-.0081959.7377418-.2411563.8943258-.5972242.1565841-.3560679.0924852-.7706269-.1643258-1.0627758.3577383-.3095377.7315935-.5999431 1.12-.87.2870321.4499675.87684.5952187 1.34.33.456626-.269643.6233657-.8488442.38-1.32.43-.2.86-.38 1.31-.54.1329367.4077867.5111167.6853869.94.69.0863563.0103734.1736437.0103734.26 0 .5129466-.1417523.8250173-.6604051.71-1.18.4533136-.0810223.9106319-.1377698 1.37-.17 0 .5522847.4477153 1 1 1s1-.4477153 1-1c.472945.0341006.9436561.0941914 1.41.18-.1150173.5195949.1970534 1.0382477.71 1.18.0863563.0103734.1736437.0103734.26 0 .4288833-.0046131.8070633-.2822133.94-.69.45.16.88.34 1.31.54-.1552066.3079365-.1408057.6741123.0381051.9689086.1789109.2947963.4970849.4766133.8418949.4810914.3399921-.0005664.6564045-.1738399.84-.46.3884065.2700569.7622617.5604623 1.12.87-.256811.2921489-.3209099.7067079-.1643258 1.0627758.156584.3560679.5054354.5890283.8943258.5972242.2457044-.0058367.4806545-.1019527.66-.27.3125909.3552238.6031347.7292572.87 1.12-.3720131.2402935-.5416633.6966564-.4169502 1.1216049.1247132.4249486.5140807.7172519.9569502.7183951.1562755-.0030402.3099448-.0406038.45-.11.2.42.38.86.54 1.3-.4662858.1532566-.7524169.6222666-.6753559 1.1070053s.4945313.8418941.9853559.8429947c.0699163.0048413.1400837.0048413.21 0 .0982428.4590462.1716825.923052.22 1.39-.5522847 0-1 .4477153-1 1s.4477153 1 1 1c-.0341006.472945-.0941914.9436561-.18 1.41-.4934139-.0607868-.9565575.2501221-1.0871523.7298067s.1110209.9824652.5671523 1.1801933c-.16.45-.34.88-.54 1.31-.4672916-.2111896-1.0186013-.0346812-1.2763444.408637-.2577431.4433181-.1383777 1.0097539.2763444 1.311363-.2668653.3907428-.5574091.7647762-.87 1.12-.3942669-.3756427-1.0166244-.3667519-1.4.02zm14.41-15.66-8.72 2.33c-.2017883-.6062908-.4457163-1.1977327-.73-1.77l7.81-4.51c.6648934 1.2644093 1.213806 2.5864852 1.64 3.95zm-2.65-5.68-7.79 4.5c-.3624656-.5293691-.7600242-1.0338343-1.19-1.51l6.38-6.38c.9695686 1.0472216 1.83996 2.182078 2.6 3.39zm-4-4.8-6.38 6.38c-.4761657-.4299758-.9806309-.8275344-1.51-1.19l4.5-7.79c1.204455.76055076 2.3359458 1.63092825 3.38 2.6zm-5.13-3.61-4.51 7.81c-.5722673-.2842837-1.1637092-.5282117-1.77-.73l2.33-8.72c1.3635148.42619403 2.6855907.97510656 3.95 1.64zm-5.88-2.16-2.33 8.71c-.6308191-.121142-1.2688205-.2013097-1.91-.24v-9.05c1.427503.06974854 2.8462075.26381661 4.24.58zm-6.24-.58v9c-.6411795.0386903-1.2791809.118858-1.91.24l-2.33-8.66c1.3937925-.31618339 2.812497-.51025146 4.24-.58zm-6.17 1.1 2.33 8.72c-.6062908.2017883-1.1977327.4457163-1.77.73l-4.51-7.81c1.2644093-.66489344 2.5864852-1.21380597 3.95-1.64zm-5.68 2.65 4.5 7.79c-.5293691.3624656-1.0338343.7600242-1.51 1.19l-6.38-6.38c1.0472216-.96956858 2.182078-1.83995995 3.39-2.6zm-4.8 4 6.38 6.38c-.4299758.4761657-.8275344.9806309-1.19 1.51l-7.79-4.5c.76055076-1.204455 1.63092825-2.3359458 2.6-3.38zm-3.61 5.13 7.81 4.51c-.2842837.5722673-.5282117 1.1637092-.73 1.77l-8.72-2.33c.42619403-1.3635148.97510656-2.6855907 1.64-3.95zm-2.16 5.88 8.71 2.33c-.121142.6308191-.2013097 1.2688205-.24 1.91h-9.05c.06974854-1.427503.26381661-2.8462075.58-4.24zm-.58 6.24h9c.0386903.6411795.118858 1.2791809.24 1.91l-8.66 2.33c-.31618339-1.3937925-.51025146-2.812497-.58-4.24zm1.1 6.17 8.72-2.33c.2017883.6062908.4457163 1.1977327.73 1.77l-7.81 4.51c-.66489344-1.2644093-1.21380597-2.5864852-1.64-3.95zm2.65 5.68 7.79-4.5c.3624656.5293691.7600242 1.0338343 1.19 1.51l-6.38 6.38c-.96956858-1.0472216-1.83995995-2.182078-2.6-3.39zm4 4.8 6.38-6.38c.4761657.4299758.9806309.8275344 1.51 1.19l-4.5 7.79c-1.204455-.7605508-2.3359458-1.6309283-3.38-2.6zm5.12 3.61 4-6.93 1.13 8.91c-1.77844-.4568332-3.4969288-1.1214051-5.12-1.98zm11.13 2.74c-1.3136932.0021515-2.6251555-.1082522-3.92-.33l-1.22-9.59c3.8363253 1.4169075 8.0871738 1.1889897 11.75-.63l4.51 7.81c-3.4288198 1.8037011-7.2457097 2.7441937-11.12 2.74zm12.85-3.75-4.5-7.79c.5293691-.3624656 1.0338343-.7600242 1.51-1.19l6.38 6.38c-1.0472216.9695686-2.182078 1.83996-3.39 2.6zm4.8-4-6.38-6.38c.4299758-.4761657.8275344-.9806309 1.19-1.51l7.79 4.5c-.7605508 1.204455-1.6309283 2.3359458-2.6 3.38zm3.61-5.12-7.81-4.51c.2842837-.5722673.5282117-1.1637092.73-1.77l8.72 2.33c-.4267591 1.3600926-.9756619 2.6787981-1.64 3.94zm2.16-5.88-8.71-2.33c.1383668-.6330034.2352396-1.2743686.29-1.92h9c-.0697485 1.427503-.2638166 2.8462075-.58 4.24z"/></g></g></g></svg>