<svg id="b54d9b58-bf4e-46a7-a019-c4174b704f38" data-name="Ebene 1" xmlns="http://www.w3.org/2000/svg" viewBox="0 0 512 512"><title>transistor</title><rect x="123.59" y="176.55" width="264.83" height="35.31" rx="8.83" style="fill:#894b9d"/><path d="M158.9,0H353.1a17.66,17.66,0,0,1,17.66,17.66h0V176.55H141.24V17.66A17.66,17.66,0,0,1,158.9,0Z" style="fill:#955ba5"/><path d="M176.55,61.79A8.83,8.83,0,0,1,167.72,53V35.31a8.83,8.83,0,1,1,17.66,0V53A8.82,8.82,0,0,1,176.55,61.79Z" style="fill:#b49aca"/><path d="M176.55,150.07a8.83,8.83,0,0,1-8.83-8.83h0v-53a8.83,8.83,0,1,1,17.66,0v53a8.83,8.83,0,0,1-8.83,8.83Z" style="fill:#b49aca"/><path d="M158.9,211.86h35.31V503.17a8.83,8.83,0,0,1-8.83,8.83H167.72a8.82,8.82,0,0,1-8.82-8.82h0Z" style="fill:#95a5a5"/><path d="M238.34,211.86h35.32V503.17a8.83,8.83,0,0,1-8.83,8.83H247.17a8.83,8.83,0,0,1-8.83-8.83Z" style="fill:#95a5a5"/><path d="M317.79,211.86H353.1V503.17a8.82,8.82,0,0,1-8.81,8.83H326.62a8.83,8.83,0,0,1-8.83-8.83Z" style="fill:#95a5a5"/></svg>