<svg xmlns="http://www.w3.org/2000/svg" viewBox="0 0 512 512"><title>wild</title><path d="M58.48,88.55H21.12A21.14,21.14,0,0,0,0,109.67v16.27a21.14,21.14,0,0,0,21.12,21.12H58.48Z" style="fill:#ff901e"/><path d="M58.48,180.68H21.12A21.14,21.14,0,0,0,0,201.8v16.27a21.14,21.14,0,0,0,21.12,21.12H58.48Z" style="fill:#ff901e"/><path d="M58.48,272.81H21.12A21.14,21.14,0,0,0,0,293.93V310.2a21.14,21.14,0,0,0,21.12,21.12H58.48Z" style="fill:#ff901e"/><path d="M58.48,364.94H21.12A21.14,21.14,0,0,0,0,386.06v16.27a21.14,21.14,0,0,0,21.12,21.12H58.48Z" style="fill:#ff901e"/><path d="M88.55,453.52h0v37.36A21.14,21.14,0,0,0,109.67,512h16.27a21.15,21.15,0,0,0,21.12-21.12V453.52H88.55Z" style="fill:#ff901e"/><path d="M180.68,453.52h0v37.36A21.14,21.14,0,0,0,201.8,512h16.27a21.15,21.15,0,0,0,21.12-21.12V453.52H180.68Z" style="fill:#ff901e"/><path d="M272.81,453.52h0v37.36A21.14,21.14,0,0,0,293.93,512H310.2a21.15,21.15,0,0,0,21.12-21.12V453.52H272.81Z" style="fill:#ff901e"/><path d="M364.94,453.52h0v37.36A21.14,21.14,0,0,0,386.06,512h16.27a21.15,21.15,0,0,0,21.12-21.12V453.52H364.94Z" style="fill:#ff901e"/><path d="M490.88,88.55H453.52v58.51h37.36A21.14,21.14,0,0,0,512,125.94V109.67A21.14,21.14,0,0,0,490.88,88.55Z" style="fill:#ff6d3a"/><path d="M490.88,180.68H453.52v58.51h37.36A21.14,21.14,0,0,0,512,218.07V201.8A21.14,21.14,0,0,0,490.88,180.68Z" style="fill:#ff6d3a"/><path d="M490.88,272.81H453.52v58.51h37.36A21.14,21.14,0,0,0,512,310.2V293.93A21.14,21.14,0,0,0,490.88,272.81Z" style="fill:#ff6d3a"/><path d="M490.88,364.94H453.52v58.51h37.36A21.14,21.14,0,0,0,512,402.33V386.06A21.14,21.14,0,0,0,490.88,364.94Z" style="fill:#ff6d3a"/><path d="M147.06,58.48h0V21.12A21.14,21.14,0,0,0,125.94,0H109.67A21.15,21.15,0,0,0,88.55,21.12V58.48h58.51Z" style="fill:#ff901e"/><path d="M239.19,58.48h0V21.12A21.14,21.14,0,0,0,218.07,0H201.8a21.15,21.15,0,0,0-21.12,21.12V58.48h58.51Z" style="fill:#ff901e"/><path d="M331.32,58.48h0V21.12A21.14,21.14,0,0,0,310.2,0H293.93a21.15,21.15,0,0,0-21.12,21.12V58.48h58.51Z" style="fill:#ff901e"/><path d="M423.45,58.48h0V21.12A21.14,21.14,0,0,0,402.33,0H386.06a21.15,21.15,0,0,0-21.12,21.12V58.48h58.51Z" style="fill:#ff901e"/><path d="M433.22,456.52H78.78a23.3,23.3,0,0,1-23.3-23.3V78.78a23.3,23.3,0,0,1,23.3-23.3H433.22a23.3,23.3,0,0,1,23.3,23.3V433.22A23.3,23.3,0,0,1,433.22,456.52Z" style="fill:#2d5872"/><path d="M433.22,55.48H394.58a23.3,23.3,0,0,1,23.29,23.3V433.22a23.3,23.3,0,0,1-23.29,23.3h38.64a23.3,23.3,0,0,0,23.3-23.3V78.78A23.3,23.3,0,0,0,433.22,55.48Z" style="fill:#1d4859"/><path d="M381.52,299.64V146A15.48,15.48,0,0,0,366,130.48H146A15.48,15.48,0,0,0,130.48,146V366A15.48,15.48,0,0,0,146,381.52H299.64A15.5,15.5,0,0,0,310.59,377l66.4-66.4A15.5,15.5,0,0,0,381.52,299.64Z" style="fill:#ffb124"/><path d="M366,130.48H342.88V275.36a15.52,15.52,0,0,1-4.53,10.95l-66.41,66.4A15.49,15.49,0,0,1,261,357.24H130.47V366A15.5,15.5,0,0,0,146,381.53H299.64A15.51,15.51,0,0,0,310.59,377l66.4-66.4a15.5,15.5,0,0,0,4.53-10.95V146A15.48,15.48,0,0,0,366,130.48Z" style="fill:#ff901e"/><text transform="translate(136.63 292.31)" style="font-size:100px;fill:#fff;font-family:BlackoakStd, Blackoak Std">W</text></svg>